<!DOCTYPE svg PUBLIC "-//W3C//DTD SVG 1.1//EN" "http://www.w3.org/Graphics/SVG/1.1/DTD/svg11.dtd">
<!-- Uploaded to: SVG Repo, www.svgrepo.com, Transformed by: SVG Repo Mixer Tools -->
<svg fill="#000000" height="256px" width="256px" version="1.1" id="Layer_1" xmlns="http://www.w3.org/2000/svg" xmlns:xlink="http://www.w3.org/1999/xlink" viewBox="-15.36 -15.36 542.72 542.72" xml:space="preserve" stroke="#000000" stroke-width="0.00512">
<g id="SVGRepo_bgCarrier" stroke-width="0"/>
<g id="SVGRepo_tracerCarrier" stroke-linecap="round" stroke-linejoin="round" stroke="#CCCCCC" stroke-width="26.624000000000002"/>
<g id="SVGRepo_iconCarrier"> <g> <g> <path d="M401.067,366.933c-28.237,0-51.2,22.963-51.2,51.2c0,28.237,22.963,51.2,51.2,51.2c28.237,0,51.2-22.963,51.2-51.2 C452.267,389.897,429.303,366.933,401.067,366.933z M401.067,452.267c-18.825,0-34.133-15.309-34.133-34.133 c0-18.825,15.309-34.133,34.133-34.133c18.825,0,34.133,15.309,34.133,34.133C435.2,436.958,419.891,452.267,401.067,452.267z"/> </g> </g> <g> <g> <path d="M110.933,366.933c-28.237,0-51.2,22.963-51.2,51.2c0,28.237,22.963,51.2,51.2,51.2s51.2-22.963,51.2-51.2 C162.133,389.897,139.17,366.933,110.933,366.933z M110.933,452.267c-18.825,0-34.133-15.309-34.133-34.133 C76.8,399.309,92.109,384,110.933,384s34.133,15.309,34.133,34.133C145.067,436.958,129.758,452.267,110.933,452.267z"/> </g> </g> <g> <g> <path d="M510.925,294.519l-42.667-76.8c-1.502-2.705-4.361-4.386-7.458-4.386H358.4c-4.71,0-8.533,3.823-8.533,8.533v128H332.8 c0-64.435,0-179.2,0-179.2c0-18.825-15.309-34.133-34.133-34.133H187.733c0-51.755-42.112-93.867-93.867-93.867 C42.112,42.667,0,84.779,0,136.533c0,13.875,3.106,27.017,8.533,38.878v165.922c-4.71,0-8.533,3.823-8.533,8.533v42.667 c0,2.27,0.896,4.437,2.5,6.042c2.517,2.5,2.509,2.492,36.028,2.466c3.61,0,6.827-2.287,8.03-5.692 c9.626-27.204,35.499-45.483,64.375-45.483c28.894,0,54.758,18.287,64.384,45.508c1.203,3.413,4.429,5.692,8.047,5.692h140.902 c4.71,0,8.533-3.823,8.533-8.533c0-0.008,0-0.026,0-0.043c0-0.529,0-10.394,0-25.557h19.994c1.954,0,3.849-0.674,5.367-1.903 c12.262-9.924,27.093-15.164,42.906-15.164c28.894,0,54.758,18.287,64.384,45.508c1.203,3.413,4.429,5.692,8.047,5.692h29.969 c4.71,0,8.533-3.823,8.533-8.533v-93.867C512,297.216,511.633,295.791,510.925,294.519z M93.867,59.733 c42.342,0,76.8,34.458,76.8,76.8s-34.458,76.8-76.8,76.8c-42.342,0-76.8-34.458-76.8-76.8S51.524,59.733,93.867,59.733z M189.167,384c-13.474-30.865-44.177-51.2-78.234-51.2c-34.048,0-64.742,20.326-78.225,51.183c-4.437,0-10.641,0.008-15.642,0.017 v-25.6c4.71,0,8.533-3.823,8.533-8.533v-25.6h8.533c4.71,0,8.533-3.823,8.533-8.533s-3.823-8.533-8.533-8.533H25.6V200.755 C42.735,218.957,66.961,230.4,93.867,230.4c45.926,0,84.181-33.178,92.237-76.8h112.563c9.412,0,17.067,7.654,17.067,17.067 v187.204c0,0.188,0,0.341,0,0.529c0,11.213,0.009,19.507,0.162,25.6H189.167z M401.067,230.4h54.716l33.186,59.733h-87.902V230.4z M494.933,324.267H486.4c-4.71,0-8.533,3.823-8.533,8.533s3.823,8.533,8.533,8.533h8.533V384H479.3 c-13.474-30.865-44.177-51.2-78.234-51.2c-11.793,0-23.433,2.475-34.133,7.134V230.4H384v68.267c0,4.71,3.823,8.533,8.533,8.533 h102.4V324.267z"/> </g> </g> <g> <g> <path d="M134.033,104.9c-3.337-3.337-8.73-3.337-12.066,0l-53.7,53.7l-11.034-11.034c-3.337-3.337-8.73-3.337-12.066,0 c-3.337,3.336-3.337,8.73,0,12.066L62.234,176.7c1.664,1.664,3.849,2.5,6.033,2.5c2.185,0,4.369-0.836,6.033-2.5l59.733-59.733 C137.37,113.63,137.37,108.237,134.033,104.9z"/> </g> </g> </g>
</svg>